# Blender 4.2.11 LTS
# www.blender.org
mtllib untitled.mtl
o claymoraski
v -7.760269 12.576594 -1.017593
v -8.696366 12.576594 -1.953691
v -7.760269 0.000000 4.498417
v -8.696366 0.000000 3.562319
v -8.696366 12.576594 -0.081495
v -8.696366 0.000000 5.434515
v 4.412807 27.878120 1.409450
v 4.412807 27.878120 -5.209761
v 4.412807 13.205425 1.409451
v 4.412807 13.205425 -5.209760
v -4.412807 27.878120 1.409450
v -4.412807 27.878120 -5.209761
v -4.412807 13.205425 1.409451
v -4.412807 13.205425 -5.209760
v -12.135221 27.878120 2.512651
v -12.135221 27.878120 -4.106559
v -12.135221 13.205425 2.512653
v -12.135221 13.205425 -4.106558
v 12.135221 27.878120 2.512651
v 12.135221 13.205425 2.512653
v 12.135221 27.878120 -4.106559
v 12.135221 13.205425 -4.106558
v -17.651230 27.878120 3.615854
v -17.651230 27.878120 -3.003358
v -17.651230 13.205425 3.615855
v -17.651230 13.205425 -3.003356
v 17.651230 27.878120 3.615854
v 17.651230 13.205425 3.615855
v 17.651230 27.878120 -3.003358
v 17.651230 13.205425 -3.003356
v 7.760269 12.576594 -1.017593
v 8.696366 12.576594 -0.081495
v 7.760269 0.000000 4.498417
v 8.696366 0.000000 5.434515
v 8.696366 12.576594 -1.953691
v 8.696366 0.000000 3.562319
v 9.670320 12.576594 -1.017593
v 8.734222 12.576594 -1.953691
v 9.670320 -0.000000 -6.533602
v 8.734222 -0.000001 -7.469699
v 8.734222 12.576594 -0.081495
v 8.734222 -0.000000 -5.597504
v -9.670320 12.576594 -1.017593
v -8.734222 12.576594 -0.081495
v -9.670320 -0.000000 -6.533602
v -8.734222 -0.000000 -5.597504
v -8.734222 12.576594 -1.953691
v -8.734222 -0.000001 -7.469699
v 11.032019 13.415035 1.188810
v 11.032019 13.415035 -3.223997
v 11.032019 12.366985 1.188810
v 11.032019 12.366985 -3.223997
v -11.032019 13.415035 1.188810
v -11.032019 13.415035 -3.223997
v -11.032019 12.366985 1.188810
v -11.032019 12.366985 -3.223997
v 11.032019 28.926170 1.188809
v 11.032019 28.926170 -3.223998
v 11.032019 27.878120 1.188809
v 11.032019 27.878120 -3.223998
v -11.032019 28.926170 1.188809
v -11.032019 28.926170 -3.223998
v -11.032019 27.878120 1.188809
v -11.032019 27.878120 -3.223998
v 6.619211 29.974220 0.195928
v 6.619211 29.974220 -2.231116
v 8.825615 28.926170 0.195928
v 8.825615 28.926170 -2.231116
v -6.619211 29.974220 0.195928
v -6.619211 29.974220 -2.231116
v -8.825615 28.926170 0.195928
v -8.825615 28.926170 -2.231116
vn 0.6754 -0.2962 -0.6754
vn -0.0000 1.0000 -0.0000
vn 0.6754 0.2962 0.6754
vn -1.0000 -0.0000 -0.0000
vn 1.0000 -0.0000 -0.0000
vn -0.0000 -1.0000 -0.0000
vn -0.0000 -0.0000 1.0000
vn -0.0000 -0.0000 -1.0000
vn 0.1414 -0.0000 0.9899
vn -0.1414 -0.0000 -0.9899
vn -0.1414 -0.0000 0.9899
vn 0.1414 -0.0000 -0.9899
vn 0.1961 -0.0000 0.9806
vn -0.1961 -0.0000 -0.9806
vn -0.1961 -0.0000 0.9806
vn 0.1961 -0.0000 -0.9806
vn -0.6754 0.2962 0.6754
vn -0.6754 -0.2962 -0.6754
vn 0.6754 0.2962 -0.6754
vn 0.6754 -0.2962 0.6754
vn -0.6754 -0.2962 0.6754
vn -0.6754 0.2962 -0.6754
vn 0.4291 0.9033 -0.0000
vn -0.4291 0.9033 -0.0000
vt 0.625000 0.765625
vt 0.609375 0.765625
vt 0.609375 0.562500
vt 0.625000 0.562500
vt 0.593750 0.734375
vt 0.593750 0.765625
vt 0.562500 0.765625
vt 0.593750 0.593750
vt 0.593750 0.562500
vt 0.562500 0.562500
vt 0.640625 0.562500
vt 0.640625 0.765625
vt 0.546875 1.000000
vt 0.656250 1.000000
vt 0.656250 0.781250
vt 0.546875 0.781250
vt 0.203125 0.343750
vt 0.343750 0.343750
vt 0.343750 0.453125
vt 0.203125 0.453125
vt 0.343750 0.671875
vt 0.343750 0.781250
vt 0.203125 0.781250
vt 0.203125 0.671875
vt 0.343750 1.000000
vt 0.203125 1.000000
vt 0.078125 0.671875
vt 0.078125 0.453125
vt 0.078125 0.343750
vt 0.468750 0.781250
vt 0.468750 1.000000
vt 0.078125 0.781250
vt 0.468750 0.343750
vt 0.468750 0.453125
vt 0.468750 0.671875
vt 0.078125 1.000000
vt 0.000000 0.671875
vt 0.000000 0.453125
vt 0.000000 0.343750
vt 0.000000 0.781250
vt 0.546875 0.343750
vt 0.546875 0.453125
vt 0.546875 0.671875
vt 0.000000 1.000000
vt 0.500000 0.328125
vt 0.468750 0.328125
vt 0.468750 0.312500
vt 0.500000 0.312500
vt 0.468750 0.203125
vt 0.468750 0.296875
vt 0.078125 0.296875
vt 0.078125 0.203125
vt 0.078125 0.328125
vt 0.078125 0.312500
vt 0.609375 0.453125
vt 0.546875 0.437500
vt 0.609375 0.437500
vt 1.000000 0.437500
vt 1.000000 0.453125
vt 0.937500 0.453125
vt 0.937500 0.437500
vt 0.640625 0.343750
vt 0.906250 0.343750
vt 0.906250 0.406250
vt 0.640625 0.406250
vt 0.906250 0.421875
vt 0.906250 0.437500
vt 0.640625 0.437500
vt 0.640625 0.421875
vt 0.906250 0.453125
vt 0.640625 0.453125
vt 0.640625 0.484375
vt 0.906250 0.484375
vt 0.906250 0.515625
vt 0.640625 0.515625
vt 0.875000 0.468750
vt 0.671875 0.468750
s 0
usemtl m_dfd37949-99a5-0f6d-eae2-13709eae4a3a
f 2/1/1 1/2/1 3/3/1 4/4/1
f 1/5/2 2/6/2 5/7/2
f 3/8/2 4/9/2 6/10/2
f 3/11/3 1/12/3 5/1/3 6/4/3
f 5/6/4 2/7/4 4/10/4 6/9/4
f 29/13/5 27/14/5 28/15/5 30/16/5
f 25/15/4 23/14/4 24/13/4 26/16/4
f 11/17/2 7/18/2 8/19/2 12/20/2
f 10/21/6 9/22/6 13/23/6 14/24/6
f 9/19/7 7/21/7 11/24/7 13/20/7
f 12/25/8 8/26/8 10/23/8 14/22/8
f 15/27/9 17/28/9 13/20/9 11/24/9
f 16/28/2 15/29/2 11/17/2 12/20/2
f 18/30/10 16/31/10 12/25/10 14/22/10
f 17/32/6 18/27/6 14/24/6 13/23/6
f 19/33/2 21/34/2 8/19/2 7/18/2
f 20/34/11 19/35/11 7/21/11 9/19/11
f 22/35/6 20/30/6 9/22/6 10/21/6
f 21/36/12 22/32/12 10/23/12 8/26/12
f 23/37/13 25/38/13 17/28/13 15/27/13
f 24/38/2 23/39/2 15/29/2 16/28/2
f 26/16/14 24/13/14 16/31/14 18/30/14
f 25/40/6 26/37/6 18/27/6 17/32/6
f 27/41/2 29/42/2 21/34/2 19/33/2
f 28/42/15 27/43/15 19/35/15 20/34/15
f 30/43/6 28/16/6 20/30/6 22/35/6
f 29/44/16 30/40/16 22/32/16 21/36/16
f 32/1/17 31/2/17 33/3/17 34/4/17
f 31/5/2 32/6/2 35/7/2
f 33/8/2 34/9/2 36/10/2
f 33/11/18 31/12/18 35/1/18 36/4/18
f 35/6/5 32/7/5 34/10/5 36/9/5
f 38/1/19 37/2/19 39/3/19 40/4/19
f 37/5/2 38/6/2 41/7/2
f 39/8/2 40/9/2 42/10/2
f 39/11/20 37/12/20 41/1/20 42/4/20
f 41/6/4 38/7/4 40/10/4 42/9/4
f 44/1/21 43/2/21 45/3/21 46/4/21
f 43/5/2 44/6/2 47/7/2
f 45/8/2 46/9/2 48/10/2
f 45/11/22 43/12/22 47/1/22 48/4/22
f 47/6/5 44/7/5 46/10/5 48/9/5
f 50/45/5 49/46/5 51/47/5 52/48/5
f 55/48/4 53/45/4 54/46/4 56/47/4
f 52/49/6 51/50/6 55/51/6 56/52/6
f 51/47/7 49/46/7 53/53/7 55/54/7
f 54/46/8 50/53/8 52/54/8 56/47/8
f 58/55/5 57/42/5 59/56/5 60/57/5
f 63/58/4 61/59/4 62/60/4 64/61/4
f 61/62/2 57/63/2 58/64/2 62/65/2
f 59/66/7 57/67/7 61/68/7 63/69/7
f 62/70/8 58/71/8 60/68/8 64/67/8
f 66/55/23 65/42/23 67/56/23 68/57/23
f 71/58/24 69/59/24 70/60/24 72/61/24
f 69/72/2 65/73/2 66/74/2 70/75/2
f 67/70/7 65/76/7 69/77/7 71/71/7
f 70/76/8 66/77/8 68/71/8 72/70/8
